HIERARCHY
ROOT Hips
{
	OFFSET -0.001795 -0.223333 0.028219
	CHANNELS 6 Xposition Yposition Zposition Zrotation Yrotation Xrotation 
	JOINT LeftUpLeg
	{
		OFFSET 0.069520 -0.091406 -0.006815
		CHANNELS 3 Zrotation Yrotation Xrotation
		JOINT LeftLeg
		{
			OFFSET 0.034277 -0.375199 -0.004496
			CHANNELS 3 Zrotation Yrotation Xrotation
			JOINT LeftFoot
			{
				OFFSET -0.013596 -0.397961 -0.043693
				CHANNELS 3 Zrotation Yrotation Xrotation
				JOINT LeftToe
				{
					OFFSET 0.026358 -0.055791 0.119288
					CHANNELS 3 Zrotation Yrotation Xrotation
					End Site
					{
						OFFSET 0.000000 0.000000 0.000000
					}
				}
			}
		}
	}
	JOINT RightUpLeg
	{
		OFFSET -0.067670 -0.090522 -0.004320
		CHANNELS 3 Zrotation Yrotation Xrotation
		JOINT RightLeg
		{
			OFFSET -0.038290 -0.382569 -0.008850
			CHANNELS 3 Zrotation Yrotation Xrotation
			JOINT RightFoot
			{
				OFFSET 0.015774 -0.398415 -0.042312
				CHANNELS 3 Zrotation Yrotation Xrotation
				JOINT RightToe
				{
					OFFSET -0.025372 -0.048144 0.123348
					CHANNELS 3 Zrotation Yrotation Xrotation
					End Site
					{
						OFFSET 0.000000 0.000000 0.000000
					}
				}
			}
		}
	}
	JOINT Spine
	{
		OFFSET -0.002533 0.108963 -0.026696
		CHANNELS 3 Zrotation Yrotation Xrotation
		JOINT Spine1
		{
			OFFSET 0.005487 0.135180 0.001092
			CHANNELS 3 Zrotation Yrotation Xrotation
			JOINT Spine2
			{
				OFFSET 0.001457 0.052922 0.025425
				CHANNELS 3 Zrotation Yrotation Xrotation
				JOINT Neck
				{
					OFFSET -0.002778 0.213870 -0.042857
					CHANNELS 3 Zrotation Yrotation Xrotation
					JOINT Head
					{
						OFFSET 0.005152 0.064970 0.051349
						CHANNELS 3 Zrotation Yrotation Xrotation
						End Site
						{
							OFFSET 0.000000 0.000000 0.000000
						}
					}
				}
				JOINT LeftShoulder
				{
					OFFSET 0.078845 0.121749 -0.034090
					CHANNELS 3 Zrotation Yrotation Xrotation
					JOINT LeftArm
					{
						OFFSET 0.090977 0.030469 -0.008868
						CHANNELS 3 Zrotation Yrotation Xrotation
						JOINT LeftForeArm
						{
							OFFSET 0.259612 -0.012772 -0.027456
							CHANNELS 3 Zrotation Yrotation Xrotation
							JOINT LeftHand
							{
								OFFSET 0.249234 0.008986 -0.001171
								CHANNELS 3 Zrotation Yrotation Xrotation
								End Site
								{
									OFFSET 0.000000 0.000000 0.000000
								}
							}
						}
					}
				}
				JOINT RightShoulder
				{
					OFFSET -0.081759 0.118833 -0.038615
					CHANNELS 3 Zrotation Yrotation Xrotation
					JOINT RightArm
					{
						OFFSET -0.096012 0.032551 -0.009143
						CHANNELS 3 Zrotation Yrotation Xrotation
						JOINT RightForeArm
						{
							OFFSET -0.253742 -0.013329 -0.021401
							CHANNELS 3 Zrotation Yrotation Xrotation
							JOINT RightHand
							{
								OFFSET -0.255298 0.007772 -0.005559
								CHANNELS 3 Zrotation Yrotation Xrotation
								End Site
								{
									OFFSET 0.000000 0.000000 0.000000
								}
							}
						}
					}
				}
			}
		}
	}
}
MOTION
Frames: 6
Frame Time: 0.050000
-0.061471 0.962840 -0.012999 -6.260789 -0.037310 -7.953572 10.068736 0.043431 6.141771 -2.509340 0.217208 4.625857 0.610456 6.233316 13.389103 0.000000 0.000000 0.000000 -10.752020 0.076920 -6.570232 7.340191 -1.626225 30.856131 -6.709799 -18.074252 26.316049 0.000000 0.000000 0.000000 -6.528528 0.128218 18.463281 11.460168 -2.396303 -23.878221 3.392984 1.216682 22.600581 -2.634680 3.109697 -15.451948 0.000000 0.000000 0.000000 -22.103263 11.605872 -8.438510 -32.325548 -11.235325 -2.446170 2.946862 -22.406510 0.391610 0.000000 0.000000 0.000000 13.068389 0.836113 -0.141504 33.503788 7.035322 -3.018902 -6.151092 24.232954 -0.278707 0.000000 0.000000 0.000000 
-0.052221 0.964464 -0.013830 -6.965226 -1.151503 -7.863413 9.740674 0.098650 6.758211 -2.046206 0.158872 4.425235 1.494398 7.139960 12.003788 0.000000 0.000000 0.000000 -9.070872 0.233914 -8.114718 6.891583 -1.318362 30.446090 -6.171995 -17.310021 23.465768 0.000000 0.000000 0.000000 -6.565149 0.175583 19.061277 11.911240 -2.450171 -24.403159 3.404782 1.491845 22.812869 -3.774936 3.903392 -15.553493 0.000000 0.000000 0.000000 -22.629124 11.421016 -8.359004 -31.004474 -11.013669 -2.470821 3.134022 -22.170756 0.354923 0.000000 0.000000 0.000000 13.121289 0.873132 -0.181333 33.200748 6.962846 -3.006573 -6.125157 24.643537 -0.302971 0.000000 0.000000 0.000000 
-0.043799 0.965352 -0.013544 -7.016892 -1.481341 -7.493951 8.862663 0.153373 7.113731 -1.672010 0.119887 3.633891 1.953576 7.657319 11.288468 0.000000 0.000000 0.000000 -8.041665 0.300576 -7.645610 5.950198 -0.890644 26.746958 -5.369189 -16.078089 21.867712 0.000000 0.000000 0.000000 -6.379806 0.161014 18.732396 11.354101 -2.221623 -25.030684 3.180888 0.781853 23.149057 -3.985856 3.923129 -15.630735 0.000000 0.000000 0.000000 -22.685709 11.489439 -8.177985 -30.335279 -10.970567 -2.539738 3.808354 -21.989924 0.260464 0.000000 0.000000 0.000000 12.747245 0.884897 -0.287068 33.133567 6.116569 -3.179292 -5.407777 24.335145 -0.202187 0.000000 0.000000 0.000000 
-0.036407 0.965642 -0.012472 -6.957797 -2.421898 -7.284167 8.117145 0.232743 7.576950 -1.421729 0.105988 2.796934 2.344247 8.296048 11.678494 0.000000 0.000000 0.000000 -6.922241 0.342766 -6.615502 4.040937 -0.209291 21.812078 -4.727742 -15.150497 20.724969 0.000000 0.000000 0.000000 -5.877947 0.122234 18.711410 10.800739 -1.998278 -25.750848 2.806683 1.193934 22.938781 -3.652972 3.671602 -15.132205 0.000000 0.000000 0.000000 -22.723788 11.331537 -8.076018 -29.558514 -10.393738 -2.611611 3.633933 -22.257059 0.288254 0.000000 0.000000 0.000000 13.658964 1.402352 -0.113659 31.683903 4.712082 -3.358176 -5.496824 23.566233 -0.235552 0.000000 0.000000 0.000000 
-0.029817 0.964653 -0.011702 -6.503679 -2.424229 -7.124588 7.292352 0.292137 8.017472 -1.035279 0.075882 1.800187 1.439386 6.768517 11.543850 0.000000 0.000000 0.000000 -6.768779 0.249791 -4.235066 2.372863 0.099487 14.900096 -3.932156 -14.137313 21.938760 0.000000 0.000000 0.000000 -5.570674 0.080344 18.414913 10.483345 -2.024524 -24.940390 2.083956 1.737827 22.078748 -3.431563 3.571335 -14.497904 0.000000 0.000000 0.000000 -22.317869 11.011761 -7.974718 -29.840219 -9.668120 -2.674356 4.421183 -22.841817 0.111802 0.000000 0.000000 0.000000 14.223562 1.518501 -0.012173 30.784353 3.620035 -3.474025 -6.296997 21.945511 -0.338761 0.000000 0.000000 0.000000 
-0.024079 0.963282 -0.012079 -5.944995 -2.801045 -7.140470 5.986717 0.388479 8.078636 -1.021874 0.078250 1.681731 2.472084 8.364577 11.332673 0.000000 0.000000 0.000000 -7.004421 0.158929 -1.945654 1.179255 0.193117 9.514468 -3.140568 -13.220820 23.064618 0.000000 0.000000 0.000000 -5.812501 0.139905 18.599600 10.298655 -1.912474 -25.545397 1.650336 2.573775 22.308594 -2.741977 3.144924 -13.539856 0.000000 0.000000 0.000000 -22.830191 10.058464 -7.681335 -29.062422 -9.076431 -2.703019 4.535295 -23.707545 0.048214 0.000000 0.000000 0.000000 15.289809 2.174197 0.392109 29.641975 2.367032 -3.674138 -6.797983 20.980006 -0.390263 0.000000 0.000000 0.000000 
